<svg id="Layer_1" data-name="Layer 1" xmlns="http://www.w3.org/2000/svg" viewBox="0 0 143.42 143.43"><defs><style>.cls-1{fill:#fff;}</style></defs><path class="cls-1" d="M143,64A71.71,71.71,0,0,0,71.71,0a72.15,72.15,0,0,0-27,5.28A71.77,71.77,0,0,0,.42,64,70.77,70.77,0,0,0,0,71.71a70,70,0,0,0,.52,8.61,71.72,71.72,0,0,0,44.14,57.82,71.95,71.95,0,0,0,27.05,5.29A71.7,71.7,0,0,0,142.9,80.32a70,70,0,0,0,.52-8.61A70.77,70.77,0,0,0,143,64Zm-23.52,39.45a4.23,4.23,0,0,1-3,1.25H26.94a4.26,4.26,0,0,1,0-8.51h89.54a4.25,4.25,0,0,1,3,7.26Zm-3-27.45H26.94a4.25,4.25,0,1,1,0-8.5h89.54a4.25,4.25,0,0,1,0,8.5Zm3-29.93a4.22,4.22,0,0,1-3,1.24H26.94a4.25,4.25,0,0,1,0-8.5h89.54a4.25,4.25,0,0,1,3,7.26Z"/></svg>
