<svg id="Layer_1" data-name="Layer 1" xmlns="http://www.w3.org/2000/svg" viewBox="0 0 143.42 143.43"><defs><style>.cls-1{fill:#fff;}.cls-2{fill:#a44b4b;}</style></defs><path class="cls-1" d="M143.42,71.71a70,70,0,0,1-.52,8.61,71.7,71.7,0,0,1-71.19,63.11,71.95,71.95,0,0,1-27-5.29A71.72,71.72,0,0,1,.52,80.32,70,70,0,0,1,0,71.71,70.77,70.77,0,0,1,.42,64,71.77,71.77,0,0,1,44.66,5.28,72.15,72.15,0,0,1,71.71,0,71.71,71.71,0,0,1,143,64,70.77,70.77,0,0,1,143.42,71.71Z"/><path class="cls-2" d="M29.71,21.18V122.25a65.69,65.69,0,0,1,0-101.07Z"/><path class="cls-2" d="M137.42,71.71a65.54,65.54,0,0,1-23.71,50.53v-101A65.52,65.52,0,0,1,137.42,71.71Z"/><path class="cls-1" d="M113.71,21.19V122.24a65.68,65.68,0,0,1-84,0V21.18a65.68,65.68,0,0,1,84,0Z"/><path class="cls-2" d="M70.2,105.12c.15-2.7.31-5.39.46-8.08l.3-5.63c0-.16,0-.33,0-.5a1.61,1.61,0,0,0-2-1.74l-11.54,2-2.59.45c.6-1.67,1.17-3.24,1.74-4.81.39-1.08.32-1.31-.59-2l-14.86-12c-.09-.07-.16-.15-.31-.29l2.14-1L44.15,71a1.13,1.13,0,0,0,.68-1.59C43.92,66.56,43,63.75,42.09,61c-.08-.25-.15-.5-.26-.83l1,.18L50.66,62a1.1,1.1,0,0,0,1.42-.74c.56-1.28,1.1-2.56,1.71-4,.18.23.29.4.42.54l6.4,6.86a1.24,1.24,0,0,0,1.12.51,1.08,1.08,0,0,0,.89-1.37c-.31-1.68-.64-3.36-1-5L59.38,47c0-.16-.05-.32-.08-.56l.59.31,4.55,2.63c.88.5,1.43.33,1.9-.58l5.07-9.93c.08-.17.17-.33.3-.57l.31.57,5,9.73c.6,1.18,1.06,1.33,2.19.67l4.4-2.54.57-.29c-.32,1.63-.61,3.18-.91,4.72l-2.4,12.31c0,.17-.12.36-.06.49a2.65,2.65,0,0,0,.57,1,.88.88,0,0,0,1.18-.1,9.17,9.17,0,0,0,.82-.83l5.83-6.25.48-.5c.2.46.38.86.55,1.26.38.89.75,1.78,1.14,2.67a1.1,1.1,0,0,0,1.42.73l8.36-1.75.45-.07c-.12.4-.22.75-.33,1.09l-2.61,8c-.32,1-.14,1.38.8,1.81l3.13,1.47c-.16.15-.27.26-.39.36l-14.86,12c-.82.66-.89.92-.52,1.92.57,1.59,1.15,3.18,1.76,4.85l-3.14-.54-11-1.93a1.6,1.6,0,0,0-2,1.74c.19,3.81.4,7.62.6,11.42,0,.93.12,1.86.17,2.79Z"/></svg>
