<svg id="Layer_1" data-name="Layer 1" xmlns="http://www.w3.org/2000/svg" viewBox="0 0 143.42 143.43"><defs><style>.cls-1{fill:#fff;}.cls-2{fill:#a44b4b;}</style></defs><path class="cls-1" d="M143.42,71.71a70,70,0,0,1-.52,8.61,71.7,71.7,0,0,1-71.19,63.11,71.95,71.95,0,0,1-27-5.29A71.72,71.72,0,0,1,.52,80.32,70,70,0,0,1,0,71.71,70.77,70.77,0,0,1,.42,64,71.77,71.77,0,0,1,44.66,5.28,72.15,72.15,0,0,1,71.71,0,71.71,71.71,0,0,1,143,64,70.77,70.77,0,0,1,143.42,71.71Z"/><path class="cls-2" d="M137.42,71.71a64.17,64.17,0,0,1-.48,7.89,65.7,65.7,0,0,1-65.23,57.83H62.12v-.71a64.54,64.54,0,0,1-15.2-4.14,65.71,65.71,0,0,1-40.44-53,65,65,0,0,1-.09-15A65.78,65.78,0,0,1,46.92,10.84a65,65,0,0,1,15.2-4.13V6h9.59A65.7,65.7,0,0,1,137,64.61,64,64,0,0,1,137.42,71.71Z"/><path class="cls-1" d="M62.12,6.71v130a64.54,64.54,0,0,1-15.2-4.14V10.84A65,65,0,0,1,62.12,6.71Z"/><path class="cls-1" d="M137,64.61a65,65,0,0,1-.09,15H6.48a65,65,0,0,1-.09-15Z"/></svg>
