<svg id="Layer_1" data-name="Layer 1" xmlns="http://www.w3.org/2000/svg" viewBox="0 0 143.42 143.43"><defs><style>.cls-1{fill:#f7d9d6;}.cls-2{fill:#fff;fill-rule:evenodd;}</style></defs><path class="cls-1" d="M143.42,71.71a70,70,0,0,1-.52,8.61,71.7,71.7,0,0,1-71.19,63.11,71.95,71.95,0,0,1-27-5.29A71.72,71.72,0,0,1,.52,80.32,70,70,0,0,1,0,71.71,70.77,70.77,0,0,1,.42,64,71.77,71.77,0,0,1,44.66,5.28,72.15,72.15,0,0,1,71.71,0,71.71,71.71,0,0,1,143,64,70.77,70.77,0,0,1,143.42,71.71Z"/><path id="Path_1" data-name="Path 1" class="cls-2" d="M80.74,129.66V76.86h18l2.57-20.61H80.73V43.39c0-5.79,1.93-10.28,10.28-10.28H102V14.42c-2.56,0-9-.65-16.07-.65-15.46,0-26.4,9.66-26.4,27.05V56.29h-18V76.86h18v52.8Z"/></svg>
