<svg id="Layer_1" data-name="Layer 1" xmlns="http://www.w3.org/2000/svg" viewBox="0 0 143.42 143.43"><defs><style>.cls-1{fill:#b0a7b5;}.cls-2{fill:#fff;fill-rule:evenodd;}</style></defs><path class="cls-1" d="M143.42,71.71a70,70,0,0,1-.52,8.61,71.7,71.7,0,0,1-71.19,63.11,71.95,71.95,0,0,1-27-5.29A71.72,71.72,0,0,1,.52,80.32,70,70,0,0,1,0,71.71,70.77,70.77,0,0,1,.42,64,71.77,71.77,0,0,1,44.66,5.28,72.15,72.15,0,0,1,71.71,0,71.71,71.71,0,0,1,143,64,70.77,70.77,0,0,1,143.42,71.71Z"/><path id="Path_3" data-name="Path 3" class="cls-2" d="M71.71,34.12A139.6,139.6,0,0,1,90,34.63a23.55,23.55,0,0,1,8.63,1.52,17.87,17.87,0,0,1,8.64,8.64,23.6,23.6,0,0,1,1.52,8.64c0,4.57.51,6.09.51,18.28A139.55,139.55,0,0,1,108.79,90a23.6,23.6,0,0,1-1.52,8.64,17.81,17.81,0,0,1-8.64,8.63A23.35,23.35,0,0,1,90,108.8c-4.58,0-6.1.51-18.29.51a139.6,139.6,0,0,1-18.29-.51,23.4,23.4,0,0,1-8.64-1.53,17.83,17.83,0,0,1-8.63-8.63A23.61,23.61,0,0,1,34.62,90c0-4.57-.51-6.09-.51-18.29a143,143,0,0,1,.51-18.28,23.61,23.61,0,0,1,1.53-8.64,18.3,18.3,0,0,1,3.55-5.08,8.66,8.66,0,0,1,5.08-3.56,23.6,23.6,0,0,1,8.64-1.52,139.6,139.6,0,0,1,18.29-.51m0-8.13a151.25,151.25,0,0,0-18.8.51,31.33,31.33,0,0,0-11.17,2,19.87,19.87,0,0,0-8.13,5.08,19.8,19.8,0,0,0-5.08,8.13,23,23,0,0,0-2,11.18A147.32,147.32,0,0,0,26,71.71a147.48,147.48,0,0,0,.51,18.8,31.38,31.38,0,0,0,2,11.18A21.31,21.31,0,0,0,41.74,114.9a31.37,31.37,0,0,0,11.17,2,151.25,151.25,0,0,0,18.8.51,151.25,151.25,0,0,0,18.8-.51,31.16,31.16,0,0,0,11.17-2,21.3,21.3,0,0,0,13.21-13.2,31.42,31.42,0,0,0,2-11.18c0-5.08.51-6.61.51-18.8a147.48,147.48,0,0,0-.51-18.8,31.37,31.37,0,0,0-2-11.17,19.77,19.77,0,0,0-5.08-8.13,20,20,0,0,0-8.13-5.08,31.37,31.37,0,0,0-11.17-2A151.25,151.25,0,0,0,71.71,26m0,22.36A23,23,0,0,0,48.34,71v.76A23.37,23.37,0,1,0,71.71,48.35h0m0,38.61A15,15,0,0,1,56.47,72.27a5.23,5.23,0,0,1,0-.56A15,15,0,0,1,71.15,56.47h.56A15,15,0,0,1,87,71.16v.55A15,15,0,0,1,72.26,87h-.55M96.09,41.74a5.59,5.59,0,1,0,5.59,5.59h0a5.64,5.64,0,0,0-5.59-5.59"/></svg>
