<svg id="Layer_1" data-name="Layer 1" xmlns="http://www.w3.org/2000/svg" viewBox="0 0 143.42 143.43"><defs><style>.cls-1{fill:#fff;}.cls-2{fill:#a44b4b;}.cls-3{fill:#4b5da4;}</style></defs><path class="cls-1" d="M143.42,71.71a70,70,0,0,1-.52,8.61,71.7,71.7,0,0,1-71.19,63.11,71.95,71.95,0,0,1-27-5.29A71.72,71.72,0,0,1,.52,80.32,70,70,0,0,1,0,71.71,70.77,70.77,0,0,1,.42,64,71.77,71.77,0,0,1,44.66,5.28,72.15,72.15,0,0,1,71.71,0,71.71,71.71,0,0,1,143,64,70.77,70.77,0,0,1,143.42,71.71Z"/><path class="cls-2" d="M137.42,71.71q0,2.79-.24,5.52-.09,1.2-.24,2.37a65.69,65.69,0,0,1-65.23,57.83H62.12v-.7c-.83-.12-1.66-.26-2.48-.42a62.86,62.86,0,0,1-10.24-2.78c-.83-.3-1.66-.61-2.48-.95a65.73,65.73,0,0,1-40.44-53q-.15-1.17-.24-2.37Q6,74.5,6,71.71c0-1.59.06-3.16.18-4.72.05-.8.12-1.59.21-2.38A65.75,65.75,0,0,1,46.92,10.85c.82-.34,1.65-.65,2.48-.95A63.89,63.89,0,0,1,59.64,7.12c.82-.15,1.65-.29,2.48-.41V6h9.59A65.7,65.7,0,0,1,137,64.61c.09.79.16,1.58.21,2.38C137.36,68.55,137.42,70.12,137.42,71.71Z"/><path class="cls-1" d="M62.12,6.71v130a64.54,64.54,0,0,1-15.2-4.14V10.84A65,65,0,0,1,62.12,6.71Z"/><path class="cls-1" d="M137,64.61a65,65,0,0,1-.09,15H6.48a65,65,0,0,1-.09-15Z"/><path class="cls-3" d="M137.42,71.71q0,2.79-.24,5.52H6.24Q6,74.5,6,71.71c0-1.59.06-3.16.18-4.72H137.24C137.36,68.55,137.42,70.12,137.42,71.71Z"/><path class="cls-3" d="M59.64,7.12V136.31a62.86,62.86,0,0,1-10.24-2.78V9.9A63.89,63.89,0,0,1,59.64,7.12Z"/></svg>
