<svg id="Layer_1" data-name="Layer 1" xmlns="http://www.w3.org/2000/svg" xmlns:xlink="http://www.w3.org/1999/xlink" viewBox="0 0 143.43 143.43"><defs><style>.cls-1{fill:none;}.cls-2{fill:#f7d9d6;}.cls-3{clip-path:url(#clip-path);}.cls-4{fill:#fff;}</style><clipPath id="clip-path"><rect class="cls-1" x="36.03" y="20.9" width="71.36" height="113.62"/></clipPath></defs><circle class="cls-2" cx="71.71" cy="71.71" r="71.71"/><g class="cls-3"><path class="cls-4" d="M104.89,79.57v45.54c-.8.51-1.63,1-2.47,1.43a63.16,63.16,0,0,1-61.46,0l-2.47-1.43V79.57A13.64,13.64,0,0,1,52.12,65.91H91.26a13.63,13.63,0,0,1,13.63,13.66"/><path class="cls-2" d="M41,126.54v-47A11.21,11.21,0,0,1,52.12,68.37H91.26a11.2,11.2,0,0,1,11.16,11.21v47c.84-.44,1.68-.92,2.47-1.43s1.66-1,2.5-1.63V79.58A16.14,16.14,0,0,0,91.26,63.44H52.12A16.13,16.13,0,0,0,36,79.58v43.9c.79.56,1.62,1.11,2.45,1.63s1.63,1,2.47,1.43"/><path class="cls-4" d="M91.81,44.19A20.83,20.83,0,1,1,71,23.37,20.84,20.84,0,0,1,91.81,44.19"/><path class="cls-2" d="M71,25.84A18.36,18.36,0,1,0,89.34,44.19,18.37,18.37,0,0,0,71,25.84m0,41.65a23.3,23.3,0,1,1,23.3-23.3A23.32,23.32,0,0,1,71,67.49"/></g></svg>
