<svg id="Layer_1" data-name="Layer 1" xmlns="http://www.w3.org/2000/svg" viewBox="0 0 143.42 143.43"><defs><style>.cls-1{fill:#fff;}.cls-2{fill:#8e5c4e;}</style></defs><path class="cls-1" d="M71.71,0a71.72,71.72,0,1,0,71.71,71.71A71.71,71.71,0,0,0,71.71,0ZM71,25.84A18.36,18.36,0,1,1,52.63,44.19,18.37,18.37,0,0,1,71,25.84Zm.73,108.68a62.9,62.9,0,0,1-30.75-8v-47a11.2,11.2,0,0,1,11.16-11.2H91.25a11.2,11.2,0,0,1,11.17,11.2v47A62.75,62.75,0,0,1,71.71,134.52Z"/><path class="cls-2" d="M104.88,79.57v45.54c-.79.51-1.62,1-2.46,1.43v-47a11.2,11.2,0,0,0-11.17-11.2H52.12A11.2,11.2,0,0,0,41,79.57v47c-.84-.48-1.68-1-2.47-1.43V79.57A13.63,13.63,0,0,1,52.12,65.91H91.25A13.63,13.63,0,0,1,104.88,79.57Z"/><path class="cls-1" d="M107.39,79.57v43.91c-.84.59-1.67,1.11-2.51,1.63s-1.62,1-2.46,1.43v-47a11.2,11.2,0,0,0-11.17-11.2H52.12A11.2,11.2,0,0,0,41,79.57v47c-.84-.48-1.68-1-2.47-1.43S36.82,124,36,123.48V79.57A16.13,16.13,0,0,1,52.12,63.44H91.25A16.14,16.14,0,0,1,107.39,79.57Z"/><path class="cls-2" d="M71,23.37A20.83,20.83,0,1,0,91.8,44.19,20.82,20.82,0,0,0,71,23.37Zm0,39.18A18.36,18.36,0,1,1,89.33,44.19,18.37,18.37,0,0,1,71,62.55Z"/><path class="cls-1" d="M71,20.9A23.28,23.28,0,0,0,57.89,63.44a22.57,22.57,0,0,0,4.69,2.47,23.26,23.26,0,0,0,16.8,0,22.57,22.57,0,0,0,4.69-2.47A23.28,23.28,0,0,0,71,20.9Zm0,4.94A18.36,18.36,0,1,1,52.63,44.19,18.37,18.37,0,0,1,71,25.84Z"/></svg>
