<svg id="Layer_1" data-name="Layer 1" xmlns="http://www.w3.org/2000/svg" viewBox="0 0 143.42 143.43"><defs><style>.cls-1{fill:#fff;}.cls-2{fill:#4b5da4;}.cls-3{fill:#a44b4b;}</style></defs><path class="cls-1" d="M143.42,71.71a70,70,0,0,1-.52,8.61,71.7,71.7,0,0,1-71.19,63.11,71.95,71.95,0,0,1-27-5.29A71.72,71.72,0,0,1,.52,80.32,70,70,0,0,1,0,71.71,70.77,70.77,0,0,1,.42,64,71.77,71.77,0,0,1,44.66,5.28,72.15,72.15,0,0,1,71.71,0,71.71,71.71,0,0,1,143,64,70.77,70.77,0,0,1,143.42,71.71Z"/><path class="cls-1" d="M137.43,71.71a66.61,66.61,0,0,1-.52,8.29,64.9,64.9,0,0,1-1.59,8.29,65.5,65.5,0,0,1-12.63,24.88,65.72,65.72,0,0,1-81.82,16.58,65.72,65.72,0,0,1-12.09-8.29,64.27,64.27,0,0,1-8-8.29A63.58,63.58,0,0,1,15,104.88,65.29,65.29,0,0,1,6.52,80,66.61,66.61,0,0,1,6,71.71q0-1.32.06-2.64c.06-1.61.18-3.22.36-4.8A65.49,65.49,0,0,1,8.8,52.66c.11-.34.21-.69.33-1,.21-.68.44-1.35.68-2,.11-.33.23-.66.36-1q.93-2.51,2.08-4.91c.57-1.23,1.18-2.44,1.83-3.62q1.42-2.59,3.08-5,1.35-2,2.87-3.93a62.18,62.18,0,0,1,4.12-4.76c.47-.5,1-1,1.44-1.46A65.51,65.51,0,0,1,38.74,14.86c1.16-.67,2.34-1.31,3.55-1.91A64.38,64.38,0,0,1,58.82,7.27c1.28-.26,2.58-.48,3.89-.65a65.64,65.64,0,0,1,60,23.64,65.43,65.43,0,0,1,9.86,16.58,64.65,64.65,0,0,1,4.36,16.58A66.73,66.73,0,0,1,137.43,71.71Z"/><path class="cls-2" d="M71.71,6V71.71H6q0-1.32.06-2.64c.06-1.61.18-3.22.36-4.8A65.49,65.49,0,0,1,8.8,52.66c.11-.34.21-.69.33-1l-.2-1.15.88-.86c.11-.33.23-.66.36-1q.93-2.51,2.08-4.91c.57-1.23,1.18-2.44,1.83-3.62q1.42-2.59,3.08-5,1.35-2,2.87-3.93a62.18,62.18,0,0,1,4.12-4.76c.47-.5,1-1,1.44-1.46A65.51,65.51,0,0,1,38.74,14.86c1.16-.67,2.34-1.31,3.55-1.91A64.38,64.38,0,0,1,58.82,7.27c1.28-.26,2.58-.48,3.89-.65A65.19,65.19,0,0,1,71.71,6Z"/><path class="cls-3" d="M137.43,71.71H71.71V63.42h65.2A66.73,66.73,0,0,1,137.43,71.71Z"/><path class="cls-3" d="M135.32,55.13H71.71V46.84h60.84A65,65,0,0,1,135.32,55.13Z"/><path class="cls-3" d="M128.45,38.55H71.71V30.26h51A63.51,63.51,0,0,1,128.45,38.55Z"/><path class="cls-3" d="M114.65,22H71.71V13.68h30.85A64.9,64.9,0,0,1,114.65,22Z"/><path class="cls-3" d="M136.91,80a64.9,64.9,0,0,1-1.59,8.29H8.11A64.9,64.9,0,0,1,6.52,80Z"/><path class="cls-3" d="M132.55,96.58a63.35,63.35,0,0,1-4.1,8.3H15a64.63,64.63,0,0,1-4.1-8.3Z"/><path class="cls-3" d="M122.69,113.17a64.94,64.94,0,0,1-8,8.29H28.78a64.27,64.27,0,0,1-8-8.29Z"/><path class="cls-3" d="M102.56,129.75a65.78,65.78,0,0,1-61.69,0Z"/><polygon class="cls-1" points="65.86 62.84 66.97 65.09 69.46 65.45 67.66 67.21 68.08 69.69 65.86 68.52 63.63 69.69 64.06 67.21 62.26 65.45 64.74 65.09 65.86 62.84"/><path class="cls-1" d="M8.93,67.21l.42,2.47L7.13,68.51l-1.07.56c.06-1.61.18-3.22.36-4.8l.71-1.43,1.11,2.25,2.49.36Z"/><polygon class="cls-1" points="18.71 62.99 19.82 65.24 22.31 65.6 20.51 67.36 20.94 69.83 18.71 68.67 16.49 69.83 16.91 67.36 15.11 65.6 17.6 65.24 18.71 62.99"/><polygon class="cls-1" points="29.71 62.84 30.82 65.09 33.31 65.45 31.51 67.21 31.94 69.69 29.71 68.52 27.49 69.69 27.91 67.21 26.11 65.45 28.6 65.09 29.71 62.84"/><polygon class="cls-1" points="41.98 62.41 43.1 64.66 45.58 65.02 43.78 66.78 44.21 69.25 41.98 68.08 39.76 69.25 40.19 66.78 38.38 65.02 40.87 64.66 41.98 62.41"/><polygon class="cls-1" points="53.91 62.84 55.02 65.1 57.51 65.46 55.71 67.21 56.14 69.69 53.91 68.52 51.69 69.69 52.11 67.21 50.31 65.46 52.8 65.1 53.91 62.84"/><polygon class="cls-1" points="13.09 55.13 14.21 57.39 16.69 57.75 14.89 59.5 15.32 61.98 13.09 60.81 10.87 61.98 11.29 59.5 9.49 57.75 11.98 57.39 13.09 55.13"/><polygon class="cls-1" points="24.2 55.13 25.32 57.39 27.8 57.75 26 59.5 26.43 61.98 24.2 60.81 21.98 61.98 22.4 59.5 20.6 57.75 23.09 57.39 24.2 55.13"/><polygon class="cls-1" points="36.08 55.13 37.19 57.39 39.67 57.75 37.88 59.5 38.3 61.98 36.08 60.81 33.85 61.98 34.28 59.5 32.48 57.75 34.96 57.39 36.08 55.13"/><polygon class="cls-1" points="49.18 55.13 50.3 57.39 52.78 57.75 50.98 59.5 51.41 61.98 49.18 60.81 46.96 61.98 47.38 59.5 45.58 57.75 48.07 57.39 49.18 55.13"/><polygon class="cls-1" points="61.11 55.13 62.22 57.39 64.71 57.75 62.91 59.5 63.34 61.98 61.11 60.81 58.89 61.98 59.31 59.5 57.51 57.75 60 57.39 61.11 55.13"/><path class="cls-1" d="M9.13,51.63,9.35,53l-.55-.29C8.91,52.32,9,52,9.13,51.63Z"/><path class="cls-1" d="M10.73,48.72l-.92.9c.11-.33.23-.66.36-1Z"/><polygon class="cls-1" points="18.71 46.11 19.82 48.36 22.31 48.73 20.51 50.48 20.94 52.96 18.71 51.79 16.49 52.96 16.91 50.48 15.11 48.73 17.6 48.36 18.71 46.11"/><polygon class="cls-1" points="29.71 46.11 30.82 48.36 33.31 48.73 31.51 50.48 31.94 52.96 29.71 51.79 27.49 52.96 27.91 50.48 26.11 48.73 28.6 48.36 29.71 46.11"/><polygon class="cls-1" points="41.98 46.11 43.1 48.36 45.58 48.73 43.78 50.48 44.21 52.96 41.98 51.79 39.76 52.96 40.19 50.48 38.38 48.73 40.87 48.36 41.98 46.11"/><polygon class="cls-1" points="53.91 46.11 55.02 48.36 57.51 48.73 55.71 50.48 56.14 52.96 53.91 51.79 51.69 52.96 52.11 50.48 50.31 48.73 52.8 48.36 53.91 46.11"/><polygon class="cls-1" points="65.86 46.11 66.97 48.36 69.46 48.73 67.66 50.48 68.08 52.96 65.86 51.79 63.63 52.96 64.06 50.48 62.26 48.73 64.74 48.36 65.86 46.11"/><path class="cls-1" d="M14.48,42.19l.42,2.47L12.68,43.5l-.43.23c.57-1.23,1.18-2.44,1.83-3.62l2.2.32Z"/><polygon class="cls-1" points="23.79 37.82 24.9 40.08 27.38 40.44 25.58 42.19 26.01 44.67 23.79 43.5 21.56 44.67 21.98 42.19 20.18 40.44 22.67 40.08 23.79 37.82"/><polygon class="cls-1" points="35.66 37.82 36.77 40.08 39.26 40.44 37.46 42.19 37.88 44.67 35.66 43.5 33.43 44.67 33.86 42.19 32.06 40.44 34.55 40.08 35.66 37.82"/><polygon class="cls-1" points="48.77 37.82 49.88 40.08 52.37 40.44 50.56 42.19 50.99 44.67 48.77 43.5 46.54 44.67 46.97 42.19 45.17 40.44 47.65 40.08 48.77 37.82"/><polygon class="cls-1" points="60.69 37.82 61.8 40.08 64.29 40.44 62.49 42.19 62.92 44.67 60.69 43.5 58.47 44.67 58.89 42.19 57.09 40.44 59.58 40.08 60.69 37.82"/><path class="cls-1" d="M20.09,33.16l.43,2.48-2.23-1.17-1.13.6q1.35-2,2.87-3.93l1.86.27Z"/><polygon class="cls-1" points="29.3 28.8 30.41 31.05 32.89 31.41 31.09 33.17 31.52 35.65 29.3 34.48 27.07 35.65 27.5 33.17 25.7 31.41 28.18 31.05 29.3 28.8"/><polygon class="cls-1" points="41.57 28.8 42.68 31.05 45.17 31.41 43.37 33.17 43.79 35.65 41.57 34.48 39.34 35.65 39.77 33.17 37.97 31.41 40.45 31.05 41.57 28.8"/><polygon class="cls-1" points="53.49 28.8 54.61 31.05 57.09 31.41 55.29 33.17 55.72 35.65 53.49 34.48 51.27 35.65 51.7 33.17 49.9 31.41 52.38 31.05 53.49 28.8"/><polygon class="cls-1" points="65.44 28.8 66.55 31.05 69.04 31.41 67.24 33.17 67.66 35.65 65.44 34.48 63.21 35.65 63.64 33.17 61.84 31.41 64.33 31.05 65.44 28.8"/><path class="cls-1" d="M26,27.36l-1.86-1c.47-.5,1-1,1.44-1.46Z"/><polygon class="cls-1" points="35.66 20.51 36.77 22.77 39.26 23.13 37.46 24.88 37.88 27.36 35.66 26.19 33.43 27.36 33.86 24.88 32.06 23.13 34.55 22.77 35.66 20.51"/><polygon class="cls-1" points="48.77 20.51 49.88 22.77 52.37 23.13 50.56 24.88 50.99 27.36 48.77 26.19 46.54 27.36 46.97 24.88 45.17 23.13 47.65 22.77 48.77 20.51"/><polygon class="cls-1" points="60.69 20.51 61.8 22.77 64.29 23.13 62.49 24.88 62.92 27.36 60.69 26.19 58.47 27.36 58.89 24.88 57.09 23.13 59.58 22.77 60.69 20.51"/><path class="cls-1" d="M43.37,15.86l.42,2.47-2.22-1.17-2.23,1.17.43-2.47-1-1c1.16-.67,2.34-1.31,3.55-1.91l.39.79,2.49.36Z"/><polygon class="cls-1" points="53.49 11.49 54.61 13.74 57.09 14.1 55.29 15.86 55.72 18.34 53.49 17.17 51.27 18.34 51.7 15.86 49.9 14.1 52.38 13.74 53.49 11.49"/><polygon class="cls-1" points="65.44 11.49 66.55 13.74 69.04 14.1 67.24 15.86 67.66 18.34 65.44 17.17 63.21 18.34 63.64 15.86 61.84 14.1 64.33 13.74 65.44 11.49"/><path class="cls-1" d="M62.92,9.31,60.69,8.14,58.47,9.31l.35-2c1.28-.26,2.58-.48,3.89-.65l-.22.21Z"/></svg>
