<svg id="Layer_1" data-name="Layer 1" xmlns="http://www.w3.org/2000/svg" viewBox="0 0 143.42 143.43"><defs><style>.cls-1{fill:#f7eddc;}.cls-2{fill:#fff;}</style></defs><path class="cls-1" d="M143.42,71.71a70,70,0,0,1-.52,8.61,71.7,71.7,0,0,1-71.19,63.11,71.95,71.95,0,0,1-27-5.29A71.72,71.72,0,0,1,.52,80.32,70,70,0,0,1,0,71.71,70.77,70.77,0,0,1,.42,64,71.77,71.77,0,0,1,44.66,5.28,72.15,72.15,0,0,1,71.71,0,71.71,71.71,0,0,1,143,64,70.77,70.77,0,0,1,143.42,71.71Z"/><rect class="cls-2" x="25.89" y="67.46" width="91.64" height="8.5" rx="4.25" transform="translate(71.71 -29.7) rotate(45)"/><rect class="cls-2" x="25.89" y="67.46" width="91.64" height="8.5" rx="4.25" transform="translate(-29.71 71.71) rotate(-45)"/></svg>
